<svg width="123" height="32" viewBox="0 0 123 32" fill="none" xmlns="http://www.w3.org/2000/svg">
<path d="M5.512 24.192C3.95467 24.192 2.73867 23.7867 1.864 22.976C0.989333 22.144 0.552 20.8533 0.552 19.104C0.552 17.632 0.84 16.0107 1.416 14.24C1.992 12.4693 2.93067 10.944 4.232 9.664C5.53333 8.36267 7.18667 7.712 9.192 7.712C11.5387 7.712 12.712 8.736 12.712 10.784C12.712 11.9787 12.3707 13.0773 11.688 14.08C11.0053 15.0827 10.0987 15.8933 8.968 16.512C7.83733 17.1093 6.632 17.4507 5.352 17.536C5.30933 18.0053 5.288 18.3253 5.288 18.496C5.288 20.2667 5.94933 21.152 7.272 21.152C7.86933 21.152 8.50933 20.992 9.192 20.672C9.87467 20.352 10.4933 19.9467 11.048 19.456C10.472 22.6133 8.62667 24.192 5.512 24.192ZM5.576 16C6.38667 15.9787 7.144 15.712 7.848 15.2C8.57333 14.688 9.14933 14.0373 9.576 13.248C10.024 12.4373 10.248 11.5947 10.248 10.72C10.248 9.84533 9.98133 9.408 9.448 9.408C8.70133 9.408 7.95467 10.0907 7.208 11.456C6.48267 12.8 5.93867 14.3147 5.576 16ZM30.6068 32C29.6468 32 28.6974 31.7227 27.7588 31.168C26.8414 30.6347 25.6681 29.8027 24.2388 28.672C23.1721 27.8187 22.2548 27.1253 21.4868 26.592C20.7401 26.08 19.9188 25.6427 19.0228 25.28C18.1481 24.9173 17.2521 24.736 16.3348 24.736C16.0148 24.736 15.7694 24.7467 15.5988 24.768L20.3668 2.592C18.9374 3.168 17.8281 4.05333 17.0388 5.248C16.2708 6.42133 15.8868 7.86133 15.8868 9.568C15.8868 10.3573 15.9614 10.912 16.1108 11.232C16.2601 11.5307 16.3348 11.7013 16.3348 11.744C15.1828 11.744 14.3188 11.5093 13.7428 11.04C13.1881 10.5493 12.9108 9.74933 12.9108 8.64C12.9108 7.27467 13.4654 5.952 14.5748 4.672C15.7054 3.37067 17.1454 2.32533 18.8948 1.536C20.6441 0.725333 22.3934 0.32 24.1428 0.32C24.4414 0.32 24.8681 0.341333 25.4228 0.383999L20.4948 23.36C21.0921 23.5093 21.7001 23.7227 22.3188 24C22.9588 24.2987 23.7268 24.6933 24.6228 25.184C26.0094 25.9307 27.1934 26.496 28.1748 26.88C29.1561 27.2853 30.1801 27.488 31.2468 27.488C32.2068 27.488 33.1028 27.3173 33.9348 26.976C33.7641 28.5333 33.3801 29.76 32.7828 30.656C32.2068 31.552 31.4814 32 30.6068 32ZM29.4198 24.192C27.8411 24.192 26.6144 23.7867 25.7398 22.976C24.8651 22.144 24.4277 20.8533 24.4277 19.104C24.4277 17.632 24.7157 16.0107 25.2918 14.24C25.8678 12.4693 26.8064 10.944 28.1078 9.664C29.4091 8.36267 31.0624 7.712 33.0677 7.712C35.4144 7.712 36.5878 8.736 36.5878 10.784C36.5878 11.9787 36.2464 13.0773 35.5638 14.08C34.8811 15.0827 33.9744 15.8933 32.8438 16.512C31.7131 17.1093 30.5078 17.4507 29.2278 17.536C29.1851 18.176 29.1638 18.6027 29.1638 18.816C29.1638 19.8613 29.3451 20.576 29.7078 20.96C30.0704 21.3227 30.6571 21.504 31.4678 21.504C32.6198 21.504 33.6011 21.2373 34.4118 20.704C35.2438 20.1707 36.1504 19.36 37.1318 18.272H38.2198C35.8518 22.2187 32.9184 24.192 29.4198 24.192ZM29.4838 16C30.2731 15.9573 31.0198 15.68 31.7238 15.168C32.4491 14.656 33.0251 14.0053 33.4518 13.216C33.8998 12.4267 34.1238 11.5947 34.1238 10.72C34.1238 9.84533 33.8571 9.408 33.3238 9.408C32.5558 9.408 31.7984 10.08 31.0518 11.424C30.3264 12.768 29.8038 14.2933 29.4838 16ZM40.965 24.192C39.749 24.192 38.7357 23.776 37.925 22.944C37.1143 22.112 36.709 20.8107 36.709 19.04C36.709 17.4613 37.0183 15.808 37.637 14.08C38.277 12.3307 39.2157 10.8587 40.453 9.664C41.7117 8.448 43.205 7.84 44.933 7.84C45.8077 7.84 46.4583 7.98933 46.885 8.288C47.3117 8.58667 47.525 8.98133 47.525 9.472V9.696L47.877 8H52.485L50.181 18.88C50.0957 19.2 50.053 19.5413 50.053 19.904C50.053 20.8213 50.4903 21.28 51.365 21.28C51.9623 21.28 52.4743 21.0027 52.901 20.448C53.349 19.8933 53.701 19.168 53.957 18.272H55.301C54.5117 20.576 53.5303 22.144 52.357 22.976C51.205 23.7867 50.0423 24.192 48.869 24.192C47.973 24.192 47.2477 23.9467 46.693 23.456C46.1597 22.944 45.8397 22.208 45.733 21.248C45.1143 22.1227 44.421 22.8373 43.653 23.392C42.9063 23.9253 42.0103 24.192 40.965 24.192ZM43.045 21.088C43.5783 21.088 44.101 20.8427 44.613 20.352C45.1463 19.84 45.509 19.1467 45.701 18.272L47.237 11.04C47.237 10.7627 47.1303 10.496 46.917 10.24C46.7037 9.96267 46.373 9.824 45.925 9.824C45.0717 9.824 44.3037 10.3253 43.621 11.328C42.9383 12.3093 42.405 13.504 42.021 14.912C41.637 16.2987 41.445 17.5253 41.445 18.592C41.445 19.6587 41.5943 20.3413 41.893 20.64C42.213 20.9387 42.597 21.088 43.045 21.088ZM56.1448 8H60.7528L60.3368 9.984C61.0621 9.344 61.7128 8.85333 62.2888 8.512C62.8861 8.17067 63.5261 8 64.2088 8C64.8914 8 65.4248 8.23467 65.8088 8.704C66.2141 9.17333 66.4168 9.73867 66.4168 10.4C66.4168 11.0187 66.2141 11.5627 65.8088 12.032C65.4034 12.5013 64.8381 12.736 64.1128 12.736C63.6434 12.736 63.3234 12.6293 63.1528 12.416C63.0034 12.1813 62.8861 11.8507 62.8008 11.424C62.7368 11.1467 62.6728 10.944 62.6088 10.816C62.5448 10.688 62.4274 10.624 62.2568 10.624C61.8088 10.624 61.4248 10.72 61.1048 10.912C60.8061 11.0827 60.4114 11.392 59.9208 11.84L57.3608 24H52.7527L56.1448 8ZM77.552 24.192C76.2507 24.192 75.2907 23.8507 74.672 23.168C74.0747 22.464 73.776 21.6 73.776 20.576C73.776 20.128 73.8293 19.6267 73.936 19.072C74.0427 18.496 74.1493 17.9413 74.256 17.408C74.384 16.8747 74.4693 16.5333 74.512 16.384C74.6827 15.6373 74.8427 14.9013 74.992 14.176C75.1413 13.4507 75.216 12.864 75.216 12.416C75.216 11.328 74.832 10.784 74.064 10.784C73.5093 10.784 73.0187 11.0613 72.592 11.616C72.1653 12.1493 71.824 12.8533 71.568 13.728L69.392 24H64.784L68.176 8H72.784L72.432 9.664C73.4987 8.46933 74.7467 7.872 76.176 7.872C77.264 7.872 78.128 8.17067 78.768 8.768C79.408 9.36533 79.728 10.272 79.728 11.488C79.728 12.1067 79.6533 12.8 79.504 13.568C79.3547 14.3147 79.1413 15.232 78.864 16.32C78.6933 16.9813 78.5333 17.632 78.384 18.272C78.256 18.8907 78.192 19.3813 78.192 19.744C78.192 20.1707 78.288 20.5013 78.48 20.736C78.672 20.9707 79.0027 21.088 79.472 21.088C80.112 21.088 80.624 20.864 81.008 20.416C81.392 19.9467 81.776 19.232 82.16 18.272H83.504C82.7147 20.6187 81.7973 22.1973 80.752 23.008C79.728 23.7973 78.6613 24.192 77.552 24.192ZM87.5003 6.272C86.7963 6.272 86.1989 6.02667 85.7083 5.536C85.2176 5.04533 84.9723 4.448 84.9723 3.744C84.9723 3.04 85.2176 2.44267 85.7083 1.952C86.1989 1.44 86.7963 1.184 87.5003 1.184C88.2043 1.184 88.8016 1.44 89.2923 1.952C89.8043 2.44267 90.0603 3.04 90.0603 3.744C90.0603 4.448 89.8043 5.04533 89.2923 5.536C88.8016 6.02667 88.2043 6.272 87.5003 6.272ZM85.3243 24.192C84.3003 24.192 83.4683 23.872 82.8283 23.232C82.2096 22.592 81.9002 21.632 81.9002 20.352C81.9002 19.8187 81.9856 19.1253 82.1562 18.272L84.3323 8H88.9403L86.6363 18.88C86.5509 19.2 86.5083 19.5413 86.5083 19.904C86.5083 20.3307 86.6043 20.64 86.7963 20.832C87.0096 21.0027 87.3509 21.088 87.8203 21.088C88.4389 21.088 89.0149 20.832 89.5483 20.32C90.0816 19.7867 90.4656 19.104 90.7003 18.272H92.0443C91.2549 20.576 90.2416 22.144 89.0043 22.976C87.7669 23.7867 86.5403 24.192 85.3243 24.192ZM102.24 24.192C100.938 24.192 99.9782 23.8507 99.3595 23.168C98.7622 22.464 98.4635 21.6 98.4635 20.576C98.4635 20.128 98.5168 19.6267 98.6235 19.072C98.7302 18.496 98.8368 17.9413 98.9435 17.408C99.0715 16.8747 99.1568 16.5333 99.1995 16.384C99.3702 15.6373 99.5302 14.9013 99.6795 14.176C99.8288 13.4507 99.9035 12.864 99.9035 12.416C99.9035 11.328 99.5195 10.784 98.7515 10.784C98.1968 10.784 97.7062 11.0613 97.2795 11.616C96.8528 12.1493 96.5115 12.8533 96.2555 13.728L94.0795 24H89.4715L92.8635 8H97.4715L97.1195 9.664C98.1862 8.46933 99.4342 7.872 100.864 7.872C101.952 7.872 102.816 8.17067 103.456 8.768C104.096 9.36533 104.416 10.272 104.416 11.488C104.416 12.1067 104.341 12.8 104.192 13.568C104.042 14.3147 103.829 15.232 103.552 16.32C103.381 16.9813 103.221 17.632 103.072 18.272C102.944 18.8907 102.88 19.3813 102.88 19.744C102.88 20.1707 102.976 20.5013 103.168 20.736C103.36 20.9707 103.69 21.088 104.16 21.088C104.8 21.088 105.312 20.864 105.696 20.416C106.08 19.9467 106.464 19.232 106.847 18.272H108.192C107.402 20.6187 106.485 22.1973 105.44 23.008C104.416 23.7973 103.349 24.192 102.24 24.192ZM112.476 32C111.473 32 110.588 31.6693 109.82 31.008C109.073 30.368 108.7 29.5467 108.7 28.544C108.7 27.6053 108.934 26.8373 109.404 26.24C109.873 25.6427 110.481 25.1733 111.228 24.832C111.974 24.4907 112.977 24.128 114.236 23.744L114.524 22.4C113.414 23.5947 112.134 24.192 110.684 24.192C109.468 24.192 108.454 23.776 107.644 22.944C106.833 22.112 106.428 20.8107 106.428 19.04C106.428 17.4613 106.737 15.808 107.356 14.08C107.996 12.3307 108.934 10.8587 110.172 9.664C111.43 8.448 112.924 7.84 114.652 7.84C115.526 7.84 116.177 7.98933 116.604 8.288C117.03 8.58667 117.244 8.98133 117.244 9.472V9.536L117.564 8H122.204L118.3 26.56C117.873 28.608 117.116 30.0267 116.028 30.816C114.961 31.6053 113.777 32 112.476 32ZM112.764 21.088C113.254 21.088 113.745 20.8853 114.236 20.48C114.748 20.0533 115.11 19.456 115.324 18.688L116.956 10.944C116.785 10.1973 116.348 9.824 115.644 9.824C114.79 9.824 114.022 10.3253 113.34 11.328C112.657 12.3093 112.124 13.504 111.74 14.912C111.356 16.2987 111.164 17.5253 111.164 18.592C111.164 19.6587 111.313 20.3413 111.612 20.64C111.932 20.9387 112.316 21.088 112.764 21.088ZM111.74 29.152C112.124 29.152 112.486 28.9493 112.828 28.544C113.169 28.16 113.436 27.5307 113.628 26.656L114.012 24.768C112.881 25.152 112.006 25.6 111.388 26.112C110.769 26.624 110.46 27.2853 110.46 28.096C110.46 28.352 110.588 28.5867 110.844 28.8C111.1 29.0347 111.398 29.152 111.74 29.152Z" fill="#161616"/>
</svg>
